<svg xmlns="http://www.w3.org/2000/svg" width="24" height="24" viewBox="0 0 24 24" fill="none" stroke="currentColor" stroke-width="2" stroke-linecap="round" stroke-linejoin="round" class="lucide lucide-brain-circuit">
  <path d="M12 4.5a2.5 2.5 0 0 0-4.96-.46 2.5 2.5 0 0 0-1.98 3 2.5 2.5 0 0 0-1.32 4.24 3 3 0 0 0 .34 5.58 2.5 2.5 0 0 0 2.96 3.08A2.5 2.5 0 0 0 12 19.5a2.5 2.5 0 0 0 4.96.46 2.5 2.5 0 0 0 1.98-3 2.5 2.5 0 0 0 1.32-4.24 3 3 0 0 0-.34-5.58 2.5 2.5 0 0 0-2.96-3.08A2.5 2.5 0 0 0 12 4.5Z" fill="#2e94ff"/>
  <path d="M12 4.5v15"/>
  <path d="M4 12h16"/>
  <path d="M5 4.5h14"/>
  <path d="M5 19.5h14"/>
</svg>